<?xml version="1.0" encoding="utf-8"?>
<!-- Generator: Adobe Illustrator 23.0.1, SVG Export Plug-In . SVG Version: 6.00 Build 0)  -->
<svg version="1.1" id="Capa_1" xmlns="http://www.w3.org/2000/svg" xmlns:xlink="http://www.w3.org/1999/xlink" x="0px" y="0px"
	 viewBox="0 0 493.8 245" style="enable-background:new 0 0 493.8 245;" xml:space="preserve">
<style type="text/css">
	.st0{fill:#FFFFFF;}
</style>
<g>
	<g>
		<path class="st0" d="M219.3,107.4c-15.2,15.2-15.2,39.9,0,55.2c15.2,15.2,39.9,15.2,55.2,0c15.2-15.2,15.2-39.9,0-55.2
			C259.2,92.2,234.5,92.2,219.3,107.4z M273.4,134c-3.2,3.2-11.4,0-18.5-7c-7-7-10.2-15.3-7-18.5c3.2-3.2,11.4,0,18.5,7
			C273.4,122.5,276.5,130.8,273.4,134z"/>
		<path class="st0" d="M493.6,152.3c-2.5-3.6-4.9-7.2-7.4-10.8c-11.2-16.4-24.4-31.4-38.6-45.3c-18.2-17.7-38.2-33.6-59.8-47
			C366,35.7,342.8,24.7,318.4,17c-20.2-6.3-41.1-10.1-62.3-11.1c-19.6-0.9-39.4,1.1-58.6,5.2C172.5,16.6,148.3,26,125.6,38
			c-22.5,12-43.5,26.6-62.9,43.1c-9.6,8.2-18.7,16.9-27.4,26.1c-8.2,8.7-16.1,17.8-23.1,27.5c-2.5,3.5-4.9,7-7.4,10.6
			c-1.6,2.3-3.2,4.6-4.7,6.9c-0.3,0.5-0.2,0.5,0.3,0.9c1.1,0.9,2.3,1.8,3.4,2.7c4,3.2,7.9,6.7,11.9,9.9c10.1,8.1,20.5,15.8,31.3,23
			c21.4,14.3,43.9,26.9,67.4,37.3c4.8,2.1,9.6,4,14.4,6c-10.8-6.9-21.4-14-31.6-21.7C87,202.5,77,194.2,67.4,185.4
			c-11.3-10.3-22.2-21.2-32.4-32.7c19.3-12.6,38.9-24.5,59.2-35.5c19.7-10.6,39.8-20,60.7-28.1c4.2-1.6,8.4-3.2,12.7-4.6
			c-9.4,14.6-14.8,32-14.8,50.6c0,51.8,42.2,94,94,94c51.8,0,94-42.2,94-94c0-18.5-5.4-35.8-14.6-50.3c5.4,1.8,10.8,3.8,16.1,5.9
			c24.2,9.4,47.5,21.1,70,33.9c15.7,8.9,31,18.4,46.1,28.2c-17,19.2-35.9,36.9-56,52.9c-12.1,9.5-24.7,18.2-37.7,26.5
			c11.9-4.8,23.5-9.9,34.9-15.7c11.5-5.9,22.8-12.2,33.8-19.1c17.9-11.2,35.5-23.4,51.4-37.3c1.8-1.6,3.7-3.1,5.6-4.6
			c0.9-0.8,1.9-1.5,2.9-2.3C493.8,152.7,493.9,152.7,493.6,152.3z M246.8,199c-35.3,0-64-28.7-64-64c0-35.3,28.7-64,64-64
			c35.3,0,64,28.7,64,64C310.8,170.3,282.1,199,246.8,199z"/>
	</g>
</g>
</svg>
